<?xml version="1.0" encoding="UTF-8"?>
<!DOCTYPE svg PUBLIC "-//W3C//DTD SVG 1.1//EN" "http://www.w3.org/Graphics/SVG/1.1/DTD/svg11.dtd">
<!-- Creator: CorelDRAW 2020 (64 Bit) -->
<svg xmlns="http://www.w3.org/2000/svg" xml:space="preserve" width="91.44mm" height="91.44mm" version="1.1" style="shape-rendering:geometricPrecision; text-rendering:geometricPrecision; image-rendering:optimizeQuality; fill-rule:evenodd; clip-rule:evenodd"
viewBox="0 0 9144 9144"
 xmlns:xlink="http://www.w3.org/1999/xlink"
 xmlns:xodm="http://www.corel.com/coreldraw/odm/2003">
 <defs>
  <style type="text/css">
   <![CDATA[
    .str0 {stroke:#ED3237;stroke-width:20;stroke-miterlimit:22.9256}
    .fil1 {fill:#ED3237}
    .fil0 {fill:black}
   ]]>
  </style>
 </defs>
 <g id="Camada_x0020_1">
  <metadata id="CorelCorpID_0Corel-Layer"/>
  <g id="_2272388156400">
   <path class="fil0" d="M3228.44 4512.73l5499.27 -0.1c0.1,-469.17 18.3,-1315.99 0.33,-1751.43 -9.72,-235.59 -192.9,-183.45 -397.84,-183.45l-4682.34 0c-496.79,-0.02 -419.32,-42.14 -419.32,742.57 0,397.47 0.52,794.97 -0.1,1192.41z"/>
   <path class="fil0" d="M474.55 5530.52l1190.06 -0.04c63.86,-240.15 50.22,-270.12 201.16,-428.08 101.05,-105.76 260.54,-188.13 454.56,-188.5 199.1,-0.37 359.61,85.33 460.79,181.63 161.32,153.55 125.83,211.5 209.33,435.08l2325.92 -0.09c34.32,-85.83 31.34,-151.73 73.7,-240.16 278.71,-581.69 1098.72,-442.58 1226.54,110.61 33.76,146.08 -1.69,129.53 167.43,129.44 61.41,-792 1121.18,-799.1 1285.7,-131.41 43.47,176.4 -89.99,131.68 657.98,130.41l-0.37 -838.74 -5677.97 -3.24c0.61,-356.04 19.06,-1665.61 -0.39,-1907.22 -21.99,-273.28 -381.79,-202.38 -746.45,-202.38 -320.26,0 -640.7,1.02 -960.92,-0.14 -336.15,-1.22 -400.05,84 -572.04,380.5 -117.87,203.14 -210.08,439.01 -262.34,697.77 -43.39,214.71 -82.7,1691.95 -32.69,1874.56zm163.94 -1336.72c493.78,-48.65 956.89,-173.07 1426.92,-255.45l-3.35 -1177.1c-234.18,0.14 -468.69,0.84 -702.98,-0.06 -190.8,-0.68 -260.4,-23.1 -440.31,276.16 -182.18,303.09 -280.22,747.39 -280.28,1156.45zm1572.65 -299.08c241.21,-40.4 484.06,-160.13 694.12,-218.42l0.03 -915.05 -694.35 0 0.2 1133.47z"/>
   <path class="fil0" d="M5844.9 5006.39c-758.61,200.73 -449.17,1316.59 280.28,1123.82 747.88,-197.6 449.42,-1316.91 -280.28,-1123.82zm30.7 172.63c-507.99,143.15 -302.73,921.27 217.26,778.59 188,-51.57 339.1,-248.5 281.99,-490.4 -44.32,-187.82 -252.98,-357.58 -499.25,-288.19z"/>
   <path class="fil0" d="M7287.29 5011.96c-771.46,232.17 -407.3,1312.38 302.73,1115.16 745.2,-206.99 417.31,-1331.87 -302.73,-1115.16zm40.34 168.08c-509.9,147.59 -300.65,913.66 215.57,777.45 501.15,-132.23 315.34,-931.12 -215.57,-777.45z"/>
   <path class="fil0" d="M2172.6 5013.93c-772.82,250.27 -390.36,1298.2 300.79,1115.78 263.96,-69.65 511.74,-357.72 410.26,-717.99 -72.19,-256.37 -361.22,-511.08 -711.05,-397.79zm39.19 168.21c-502.32,151.47 -296.53,900.62 213.69,778.33 187.45,-44.92 357.31,-253.74 289.66,-501.67 -50.99,-186.83 -261.05,-349.74 -503.35,-276.66z"/>
   <rect class="fil1 str0" x="3237.94" y="3945.38" width="5482.74" height="552.01"/>
  </g>
 </g>
</svg>
